<?xml version="1.0" encoding="UTF-8"?>
<svg id="Layer_1" xmlns="http://www.w3.org/2000/svg" version="1.1" viewBox="0 0 512 512">
  <!-- Generator: Adobe Illustrator 29.3.1, SVG Export Plug-In . SVG Version: 2.1.0 Build 151)  -->
  <defs>
    <style>
      .st0 {
        fill: #102b42;
      }
    </style>
  </defs>
  <path class="st0" d="M349.3,69.3c51.5.2,93.2,41.9,93.3,93.3v186.7c-.2,51.5-41.9,93.2-93.3,93.3h-186.7c-51.5-.2-93.2-41.9-93.3-93.3v-186.7c.2-51.5,41.9-93.2,93.3-93.3h186.7M349.3,32h-186.7c-71.9,0-130.7,58.8-130.7,130.7v186.7c0,71.9,58.8,130.7,130.7,130.7h186.7c71.9,0,130.7-58.8,130.7-130.7v-186.7c0-71.9-58.8-130.7-130.7-130.7h0Z"/>
  <path class="st0" d="M377.3,162.7c-15.5,0-28-12.5-28-28s12.5-28,28-28,28,12.5,28,28c0,15.4-12.4,28-27.9,28,0,0,0,0-.1,0ZM256,181.3c41.2,0,74.7,33.4,74.7,74.7s-33.4,74.7-74.7,74.7-74.7-33.4-74.7-74.7c0-41.2,33.4-74.6,74.7-74.7M256,144c-61.9,0-112,50.1-112,112s50.1,112,112,112,112-50.1,112-112-50.1-112-112-112Z"/>
</svg>