<?xml version="1.0" encoding="UTF-8"?>
<svg id="Layer_1" xmlns="http://www.w3.org/2000/svg" version="1.1" viewBox="0 0 512 512">
  <!-- Generator: Adobe Illustrator 29.3.1, SVG Export Plug-In . SVG Version: 2.1.0 Build 151)  -->
  <defs>
    <style>
      .st0 {
        fill: #102b42;
      }
    </style>
  </defs>
  <path class="st0" d="M496,109.5c-18,7.8-37.1,13-56.5,15.3,20.5-12,35.9-31.1,43.3-53.6-19.4,11.3-40.5,19.3-62.6,23.5-18.8-19.7-44.7-30.8-71.9-30.7-54.4,0-98.5,43.4-98.5,96.9,0,7.4.8,14.9,2.5,22.1-78.9-3.7-152.6-40.5-203-101.3-8.7,14.7-13.4,31.6-13.4,48.7,0,33.6,17.5,63.3,44,80.7-15.7-.4-31-4.5-44.8-12.1v1.2c0,47,34,86.1,79,95-8.5,2.3-17.2,3.4-25.9,3.4-6.2,0-12.4-.6-18.5-1.8,12.5,38.5,48.9,66.5,92.1,67.3-35,27-78.1,41.6-122.3,41.5-7.9,0-15.7-.5-23.5-1.4,45,28.7,97.3,43.9,150.7,43.8,181.4,0,280.4-147.7,280.4-275.8s-.1-8.4-.3-12.5c19.2-13.7,35.9-30.7,49.1-50.2Z"/>
</svg>